<svg width="24" height="24" viewBox="0 0 24 24" fill="none" xmlns="http://www.w3.org/2000/svg">
<path fill-rule="evenodd" clip-rule="evenodd" d="M19.3696 6.06522H4.63043C3.76599 6.06522 3.06522 6.76599 3.06522 7.63043V19.3696C3.06522 20.234 3.76599 20.9348 4.63043 20.9348H19.3696C20.234 20.9348 20.9348 20.234 20.9348 19.3696V7.63043C20.9348 6.76599 20.234 6.06522 19.3696 6.06522ZM4.63043 4.5C2.90154 4.5 1.5 5.90154 1.5 7.63043V19.3696C1.5 21.0985 2.90154 22.5 4.63043 22.5H19.3696C21.0985 22.5 22.5 21.0985 22.5 19.3696V7.63043C22.5 5.90154 21.0985 4.5 19.3696 4.5H4.63043Z" fill="#F9FFF2"/>
<path fill-rule="evenodd" clip-rule="evenodd" d="M19.3696 6.06522H4.63043C3.76599 6.06522 3.06522 6.76599 3.06522 7.63043V10.4348H20.9348V7.63043C20.9348 6.76599 20.234 6.06522 19.3696 6.06522ZM4.63043 4.5C2.90154 4.5 1.5 5.90154 1.5 7.63043V12H22.5V7.63043C22.5 5.90154 21.0985 4.5 19.3696 4.5H4.63043Z" fill="#F9FFF2"/>
<path fill-rule="evenodd" clip-rule="evenodd" d="M7.5 1.5C7.91421 1.5 8.25 1.83579 8.25 2.25V6.75C8.25 7.16421 7.91421 7.5 7.5 7.5C7.08579 7.5 6.75 7.16421 6.75 6.75V2.25C6.75 1.83579 7.08579 1.5 7.5 1.5Z" fill="#F9FFF2"/>
<path fill-rule="evenodd" clip-rule="evenodd" d="M16.5 1.5C16.9142 1.5 17.25 1.83579 17.25 2.25V6.75C17.25 7.16421 16.9142 7.5 16.5 7.5C16.0858 7.5 15.75 7.16421 15.75 6.75V2.25C15.75 1.83579 16.0858 1.5 16.5 1.5Z" fill="#F9FFF2"/>
</svg>
